<?xml version="1.0" encoding="UTF-8" standalone="no"?><!DOCTYPE svg PUBLIC "-//W3C//DTD SVG 1.1//EN" "http://www.w3.org/Graphics/SVG/1.1/DTD/svg11.dtd"><svg width="100%" height="100%" viewBox="0 0 397 600" version="1.1" xmlns="http://www.w3.org/2000/svg" xmlns:xlink="http://www.w3.org/1999/xlink" xml:space="preserve" xmlns:serif="http://www.serif.com/" style="fill-rule:evenodd;clip-rule:evenodd;stroke-linejoin:round;stroke-miterlimit:1.41421;"><path d="M121,3c-4,3 -12,11 -17,18l-6,6l-4,6l-4,4l-2,2l-1,2l-1,1l-2,2l-1,2l0,1c-2,0 -6,3 -6,5l-2,1l-3,3l-2,2l-1,1l-7,8l-24,27l-9,11l-6,6c-2,4 -13,15 -16,19c-3,3 -3,3 -3,7c1,3 0,12 -2,19c1,0.666 2,1.333 3,2c-3,4 -3,4 -4,16l0,13l4,-5l14,-16l19,-21l9,-9l-16,18l-26,30c-3,4 -4,5 -4,9l0,19l5,-4l7,-9l12,-12c15.282,-16.46 29.958,-33.471 44,-51l38,-43l7,-8l6,-7l6,-5l0,1c-14.149,17.115 -28.823,33.79 -44,50l-19,22c-20.129,20.943 -39.476,42.624 -58,65l-5,6l0,7l1,15l12,-14l2,-3l5,-4l4,-4l-4,6c-4.659,5.643 -9.669,10.987 -15,16l-4,6l0,8c0.753,4.32 1.42,8.654 2,13l11,-12l16,-17l-11,13c-16,18 -16,18 -15,22l1,8l2,6c1,1 2,1 8,-6l7,-7l-7,8c-5,6 -6,8 -6,10l1,3l1,2l4,7l7,14l2,5l3,-2l2,-2l-2,2c-2,3 -2,3 -1,8l5,12l4,-4l4,-3l-3,4c-4,4 -5,7 -3,7l1,2l4,5c3,3 3,3 4,1c2,-5 13,-17 16,-18l1,-3l3,-4c8.55,-6.71 16.573,-14.065 24,-22c2,-1 2,-1 0,2l-4,6l-3,5l-4,5c-10,10 -11,12 -7,12c2,0 6,3 4,3l-4,-1c-2,-1 -3,-1 -5,2l-14,14c-5,6 -6,7 -7,6l-1,5l0,6l1,2l0,8l1,-4l7,-10l9,-11c1,-2 0,-4 -3,-4l0,-2c0,-2 3,-2 5,1c2,3 3,3 3,0l3,-3c8.633,-7.39 16.354,-15.782 23,-25l13,-11c14.492,-13.969 26.647,-30.176 36,-48l-2,-2c-2,-1 -3,0 -7,3c-3,2 -5,5 -4,5l-1,1c-1,-1 -9,3 -9,4l-4,5l-8,8c-4.25,4.762 -8.937,9.114 -14,13l3,-4l9,-10c9,-10 11,-13 13,-19c2,-3 2,-4 0,-4l-1,-1l-1,-2c-1,-1 -2,-1 -3,1l-4,2c-6,3 -21,16 -21,19c0,2 -6,9 -16,19l-16,19l-2,4l-2,2l-4,5c-3,3 -3,3 -5,2l0,-2l1,-3c0,-3 4,-8 6,-8l5,-5l4,-4l7,-9l14,-16l15,-15c2,-2 4,-9 4,-11c-1,0 -1,-1 0,0c0,0 2,-1 2,-3c2,-3 2,-4 1,-5c-1,-1 -2,-1 -6,2c-2,2 -4,4 -3,5c2,1 0,2 -2,2c-2,-1 -4,0 -7,3l-8,6l-3,4l-1,1l-5,5l-15,19c-4,3 -6,6 -6,7c0,2 -2,4 -3,2l-2,-1l0,-2l2,-3l12,-14c6.897,-7.183 13.248,-14.871 19,-23l2,-5l0,-1l1,-1l1,-2l0,-3c-2,-1 -2,-1 -6,2l-3,4l-3,2c-6,2 -8,4 -7,4l-1,1l-1,2l-1,2l-10,10c0,2 -1,3 -3,2c-1,-1 -4,2 -17,16l-6,7l8,-10c10,-11 13,-15 16,-22l4,-5l0,-2l1,-1l1,-1l2,-5c2,-1 3,-3 2,-4l2,0l0,-2c-3,-2 -2,-3 1,-2l1,1c0,2 6,-5 9,-9c2,-2 2,-2 -1,-4l-3,-2l-4,5c-3,2 -5,5 -5,6l-1,0c-1,-1 -2,0 -4,2l-4,3l-6,5l-6,6l5,-6l9,-13l9,-13l6,-8l3,-4c4.026,-5.982 8.026,-11.983 12,-18c-1,-1 -1,-1 1,-1c3,1 4,0 7,-4l5,-6c0,0 -1,-2 -3,-2l-3,-2l-4,4l-4,5l-1,0l-1,1l0,2l-5,3l0,2l-1,1l-4,3c-2,2 -5,6 -8,7l-6,4l-6,7l-6,6l6,-8l8,-11c24.408,-34.971 52.948,-66.869 85,-95l9,-10c17.996,-21.587 36.672,-42.597 56,-63l3,-6c1,1 10,-8 14,-13c1,-3 3,-5 5,-6c1,-2 1,-2 -9,-2c-11,1 -13,1 -13,3l-3,4l-4,5l-4,3c-3,3 -4,5 -4,7l-1,1c-2,0 -13,11 -15,15l-6,7c-7.445,7.897 -14.779,15.898 -22,24l-2,2l2,-3l4,-4l4,-6c3.368,-4.264 7.045,-8.275 11,-12c9.852,-12.406 20.194,-24.415 31,-36l4,-5l1,-2l1,-1l2,-1c1,-2 -2,-3 -5,-2l-5,0c-2,-1 -4,-2 -5,-1c-2,0 -7,4 -7,5l-8,9c-11,11 -19,21 -21,25l-4,4l-2,2l-1,1l-7,6l-5,6l5,-7l9,-12l2,-1l2,-2l1,-2l6,-6l8,-9l7,-8l8,-10l2,-3l-3,0l-2,1l-2,1l-3,-3l-1,-1l-3,0c-12.23,11.439 -23.91,23.453 -35,36c-12.803,12.588 -24.825,25.946 -36,40l-5,5c-2,1 -2,1 0,-2c15.038,-19.448 31.411,-37.825 49,-55c7.034,-7.339 13.708,-15.015 20,-23l2,-3l-2,0l-3,-1l-5,-1l-5,-2l-14,14c-2.995,2.34 -5.995,4.673 -9,7c9,-9 19,-22 18,-23l-7,-1c-7,0 -8,0 -11,3Zm14,87l-6,6l-3,4l-7,8c-5.958,5.514 -11.019,11.925 -15,19l-7,9c-8,12 -14,18 -21,24l-3,3c-9.259,12.58 -20.003,23.996 -32,34c1.64,-2.683 3.307,-5.35 5,-8l10,-13l7,-9l1,-2l2,-2l6,-8c13.771,-16.799 28.815,-32.512 45,-47c5.732,-6.262 11.738,-12.268 18,-18Zm-80,37l-4,4l-3,3l3,-3l4,-4Zm-25,134l-4,4l-3,4l3,-4l4,-4Zm6,46l-4,4l-3,4l3,-4l4,-4Zm70,-297l-5,5l-2,3l-2,2l2,0l3,-2l5,-6l5,-5l-6,3Z" style="fill-rule:nonzero;"/><path d="M224,17l0,1l-2,1c0,0 -2,1 -2,3l-2,3c-2,0 -8,6 -8,7l-5,7c-5.69,5.32 -11.034,10.999 -16,17l-9,9c-8.722,11.186 -18.071,21.87 -28,32c-5.845,7.131 -11.847,14.133 -18,21l-6,7c-9.318,11.169 -17.998,22.854 -26,35l-6,8c0,1 5,3 7,2l4,-5l4,-4l-2,-2l-2,-3l5,4c14.994,-12.605 29.345,-25.955 43,-40c-13.58,15.354 -25.95,31.736 -37,49c-8,9 -9,11 -5,13c2,1 -1,3 40,-37c5.123,-4.187 9.813,-8.877 14,-14l6,-7c5.867,-7.723 12.213,-15.071 19,-22l7,-7l1,-1l4,-6l5,-5l3,-4l3,-4l0,-1l5,-4l5,-3l-2,3l-3,4l-1,2l-4,3l-6,7l-3,4l-1,1l-1,2l-1,1l-19,20l-8,9l-6,7l-6,7c-5.291,5.123 -9.987,10.825 -14,17c-5.561,8.524 -10.897,17.194 -16,26l-1,0c-1,-1 -2,0 -6,5l-3,6l1,1c0,3 3,3 4,1l3,-3l3,-3l2,-2l13,-12c5.129,-5.878 10.823,-11.237 17,-16c6.065,-7.884 12.403,-15.555 19,-23c-1,-1 0,-2 1,-1c2,0 8,-7 8,-9l1,-1l11,-11l5,-5l2,-4l4,-3l0,2l-1,3c-2,0 -19,18 -19,20l-4,4l-5,6l-2,2l-6,6c-5.273,7.31 -10.948,14.321 -17,21c-6.803,11.577 -14.493,22.61 -23,33c-5,5 -5,6 -3,7c2,1 3,0 7,-3c3,-3 4,-5 3,-5c-2,0 -3,-2 -2,-4l3,0c3,2 3,2 7,-2c6.67,-6.689 13.679,-13.03 21,-19l11,-12c6.404,-6.291 12.416,-12.971 18,-20l11,-13l2,-2l5,-4l12,-13l-1,2c-4.147,4.837 -8.483,9.507 -13,14l-2,4l-2,2l-2,2l-1,2c-2,0 -12,12 -12,14l-1,1c-2,0 -5,4 -15,17l-9,11l-1,1l-2,4l-7,9l-4,6c-3,3 -3,4 0,5c1,2 2,1 5,-1l5,-6l1,-1c21.085,-16.462 39.914,-35.627 56,-57l4,-4l6,-6l3,-4c0,-2 4,-3 4,-2c1,2 -1,5 -3,5l-1,1l-5,6c-3,2 -5,5 -5,6l-3,3c-2,2 -3,3 -2,4c0,1 0,2 -2,1c-13.505,11.71 -24.991,25.562 -34,41l-1,3l-2,2l-1,3l-1,1l1,3l2,1l2,-2l3,-3c2,-3 2,-3 0,-5c-1,-2 -1,-3 1,-1c3,2 5,2 8,-1l7,-6c10.625,-9.027 20.338,-19.075 29,-30l2,-1l5,-7c2,-2 3,-2 3,-1l-1,2l-1,1l-5,6c-10,10 -24,28 -25,33c0,1 2,2 6,2c3,1 15,-7 23,-16c6,-6 7,-7 6,-11c0,-2 0,-3 1,-2l1,2c2,0 -5,12 -7,12l-1,1l-3,5l-4,8l-1,7l0,2l2,-1c1,-1 6,-5 11,-6c4,-2 8,-5 17,-15l3,-3l-3,5l-9,11c-2,3 -1,6 1,7c2,2 3,2 10,-1c5,-2 8,-4 12,-8l12,-15l6,-6l2,-4l1,-1l2,-2l3,-3l2,-1l4,-5l5,-6c0,-2 1,-3 2,-3l0,-5c-1,-1 -1,-1 1,-1l3,0l1,-1l3,-3c1,-3 0,-7 -1,-7l-4,-3l-2,-2l-1,3c0,2 0,2 -1,1c-1,-1 -1,-1 -1,1l-2,1c-1,-2 -4,2 -3,4l-1,2c-1,-1 -4,0 -4,2l-3,4l-3,4l-2,1l-6,6l-6,7l-2,3l-2,2l-2,1l-3,3l-2,4l-2,1l-2,1l-1,2l0,-2l2,-3l2,-2l2,-3l2,-2l2,-2l1,-2l4,-4l3,-3l1,-2l1,-1c2,0 6,-4 5,-5l3,-4l3,-4l0,-1c2,0 10,-9 10,-10l1,-2l3,-3l3,-4l1,-2l1,-2c2,0 2,0 1,-2c-1,-2 -1,-2 1,-3l3,-1l-7,-7l-2,3l-2,1l-1,-1l-1,1l0,2l-2,2c0,2 -1,3 -3,3l-2,2l-1,1l-1,1l-2,1l-1,1l0,2l-2,1l-2,2l-1,2l-1,2c1,0 1,1 0,0l-3,2c-2,2 -2,2 0,2l-1,1c-2,1 -2,2 -1,3l0,1l-3,-1c0,-1 -10,8 -10,10l-2,2c-4,3 -7,8 -7,11l0,1c0,-1 -3,0 -6,3c-2,3 -5,3 -3,0l3,-3l0,-3l1,-1l18,-18c3,-3 3,-4 3,-6l1,-1l5,-4l8,-9c4,-4 8,-9 7,-10l1,-1c1,0 2,-1 1,-2c0,-2 0,-3 3,-3l2,-1l2,-3c2,-3 2,-5 -1,-6l-2,-2l1,0l3,1c1,0 1,-1 -1,-2c-3,-4 -6,-4 -5,-2l-3,3c-2,0 -4,1 -5,3l-1,2l-5,4l-3,4l-2,2l-4,6l-3,3l-2,2l-3,3c-4,2 -5,4 -3,4c4,0 2,1 -1,2c-5,0 -5,-1 -2,-3l1,-2l1,-2l2,-2l1,-2l4,-4l4,-4l5,-6l7,-7c2,-2 3,-4 2,-5l1,-1l0,-2l-2,-1l-2,-1l2,0c5,2 7,1 6,-1l1,-4l2,-2l-1,0c-1,1 -1,1 -1,-1c0,-3 1,-3 4,1l3,2l-1,-3l-4,-3l-5,-2l-2,-3l1,3l2,3l-6,0l-3,2l-1,1l-3,3c-5.577,5.779 -10.915,11.784 -16,18l-4,5l-2,2l-1,1l-2,2c-2,0 -3,1 -3,2l-9,9c-4,5 -7,7 -4,5l12,-15l4,-5l2,-3l0,-1c2,0 5,-3 5,-4l-2,0l-1,-1l3,-1c2,0 11,-8 11,-10l3,-5l4,-5l2,-3l2,-3c0,-1 0,-2 2,-2l2,-2l2,0l0,-2c-1,-2 -2,-2 -3,-1c-2,1 -2,1 -1,-2l-1,-2l-2,-1l-1,-1l-2,-1l-1,0l1,2c2,2 2,2 0,3l-3,1l-1,2l-5,4l-3,3l-3,1l-4,3l-7,9c-4,4 -6,6 -5,7l-1,2l-1,1l-1,1l-6,5l-16,16l3,-4c8,-9 12,-14 12,-16c-1,-1 0,-1 1,-1l1,-1l1,-1l1,-1l1,-2l4,-2c3,-2 12,-14 12,-15l4,-4l3,-5l1,-1c2,0 4,-4 4,-7c0,-2 0,-2 3,-1l3,-1l-1,-1l-2,-1c0,-2 -10,-7 -11,-6l1,1l0,1l-1,1l-3,2c-9.817,10.509 -19.818,20.844 -30,31c7.69,-8.441 14.711,-17.469 21,-27c1,1 7,-7 7,-9c0,-1 0,-2 2,-1c2,0 2,0 0,-2l-3,-2l-2,-2l-2,0c-1,1 -1,1 -3,-1l-2,-1l-1,3l-1,0l-1,2l-2,2l-4,3l-3,4l-7,7l-3,3l-2,4l-1,1l-1,1l-1,2l-6,5l-5,4l2,-3l3,-4l7,-8c7,-7 15,-17 16,-21l2,-2l3,-2c1,-2 -1,-3 -9,-4c-7,0 -10,2 -9,5l-3,0l-1,3l-7,8c-8.834,7.857 -16.873,16.566 -24,26l-7,8c0.003,-1 0.003,-2 0,-3c13.57,-16.371 27.575,-32.377 42,-48c1,-1 0,-1 -3,-1l-4,-2c-1,-1 -9,-3 -9,-1Zm17,59l-4,4l-2,4l-2,1l-2,2l-1,2c-4,2 -3,0 2,-5l4,-6l2,-2l3,0Zm-14,15l-4,5l-4,4l4,-5l4,-4Zm98,6l-1,1l-1,-1l0,-1l1,1l1,0Zm-19,4l-1,0l-2,-1l-1,-1c0,-2 0,-2 2,0l2,2Zm-32,17l-3,4l-4,4l-2,2c-4,4 -6,8 -5,9l-1,1c-2,-1 -4,0 -4,2c1,2 1,2 -1,2c-3,0 -4,-3 -1,-4l2,-1l5,-6l9,-9c3,-5 5,-6 5,-4Zm-12,40l-4,4l0,-2c1,-3 4,-4 4,-2Zm-124,25l-1,1l-1,-1l1,-1l1,1Zm-43,-160c-3,1 -4,3 -2,3c2,0 5,-3 5,-4l-3,1Zm-6,7l-1,2c1,1 2,-1 2,-2l-1,0Zm-16,18l-3,5l4,-3c5,-6 4,-6 -1,-2Zm-10,13l-7,1c-9,1 -14,2 -16,4l-2,2c1,1 -3,5 -9,11c-6,7 -7,8 -7,13l-1,6c-2,1 -4,7 -4,10l-2,6l-4,6c-1,2 -2,3 -4,3c-3,0 -3,1 -2,3c0,1 2,0 5,-3l4,-4l15,-17c11.759,-13.308 23.098,-26.982 34,-41Zm-34,9l-3,3l-1,3l0,1l7,-7c3,-2 2,-3 -3,0Z" style="fill-rule:nonzero;"/><path d="M319,74c-2,2 0,6 3,7c4,2 4,-1 0,-6c-2,-2 -3,-3 -3,-1Zm13,13c-2,0 -2,1 2,3l2,2l-2,-4c0,-2 0,-2 -2,-1Zm-4,4l-1,1c-2,-1 -2,-1 -1,1c1,1 2,2 1,3l2,1l5,0c-1,-1 -1,-1 1,-1l3,1l-3,-2l-5,-4c-3,-2 -3,-2 -2,0Zm11,10l0,1l-3,0c-1,0 -1,3 1,7l-2,0l-2,-1l0,1c2,2 1,3 -1,2c-1,0 -2,0 -2,2l-1,0c-1,-2 -1,-2 -2,1l0,4l4,3c3,3 6,4 5,2l0,-5c0,-4 0,-4 2,-3c2,1 2,1 1,-1l2,-1l2,0c-3,-3 0,-6 4,-4l-2,-3c-2,-3 -2,-4 -1,-4c2,1 3,0 1,-2l-4,-1c-3,0 -3,0 -2,2Zm5,5l0,2l-1,-2l0,-2l1,2Zm-12,8l0,2l-1,-2l0,-1l1,1Zm13,4l1,2l1,3c0,2 0,2 -2,1l-1,0l0,2l-2,1l4,8c2,1 3,0 2,-3c-1,-2 1,-4 4,-4c2,1 3,0 1,-4l-1,-4l-2,-2l-5,0Z" style="fill-rule:nonzero;"/><path d="M353,120l0,3c2,3 3,3 2,-1l0,-1l2,0c0,-1 -2,-2 -4,-1Zm-13,10l-2,1l-3,0c1,2 0,2 -1,1c-1,0 -2,0 -3,2l-1,2l-2,2l-2,3l-3,2l-3,2l-1,1l-3,4l-7,8l-10,11l-15,16l-2,3l5,4l4,3l1,-2l1,-2l1,0c2,3 3,2 2,-1c0,-2 0,-2 2,-2c2,1 4,0 11,-7l9,-10l3,-4l2,-2l2,-3l2,-3c-1,-1 0,-1 1,-1l2,-2l3,-2l0,-2l2,-3c2,0 3,-1 3,-3l-1,-3l-1,-1l1,0c1,1 2,0 3,-1l3,-2l1,-1c1,-1 0,-4 -2,-4l-1,-1l1,0l0,-2l-2,-1Zm20,3c0,4 0,4 -2,2l-3,0l-1,2l-1,0c-2,0 -2,0 -1,2l-1,1c-1,-1 -1,0 -1,3c0,3 0,3 -1,2c-2,-2 -2,-2 -2,0c0,1 0,2 -2,1l0,2l1,2l-2,0l-3,1l-3,2l-3,2l0,2c2,2 1,3 -1,2l-2,1l0,1c-7.757,8.563 -15.76,16.9 -24,25l-5,6l0,6c0,4 0,4 -2,3l-2,-1c-1,1 1,6 4,8c2,3 4,2 2,-1c-2,-3 -1,-5 1,-3l3,2l3,-4l1,-1c2,0 10,-8 9,-10l3,-2l2,-2l1,-2c2,0 6,-5 6,-7c0,-1 1,-2 3,-2l2,-2l3,-4c2,-2 4,-4 3,-5l1,-1c1,0 5,-4 5,-6l1,-1l2,-2l3,-1l2,-3l3,-3l1,-3l1,-3c2,-2 2,-3 -1,-6c-2,-3 -3,-3 0,-2l-1,-2c0,-2 -1,-3 -2,-3l0,4Zm-1,21l-5,7l-2,2c-2,1 -3,2 -2,3c0,2 0,2 -1,1c-1,0 -7,5 -7,7l-1,1c0,0 -2,1 -2,3l-5,5l-4,4l-1,1l-2,3l-2,2c-2,0 -10,10 -10,12l-1,2l-2,2l-2,3c-2,0 -2,4 -1,6l1,4c-1,1 0,2 1,3c2,2 3,2 5,0c2,0 3,-2 3,-2l4,-5l6,-8l4,-3l4,-4l5,-6l4,-6l1,-1l2,-1l4,-5l18,-20c3,-3 3,-4 0,-11c-3,-7 -5,-6 -12,1Zm14,10l-4,5c-6.738,6.061 -12.475,13.148 -17,21c-2,0 -8,6 -8,8l-2,2l-1,2l-1,1c-2,0 -8,7 -8,9l-1,1l-4,4l-6,7c-5,5 -7,10 -7,15c0,5 1,10 3,10c14.949,-12.367 28.377,-26.466 40,-42l-2,3c-11.464,12.944 -22.471,26.285 -33,40c-4,3 -6,14 -5,17c1,2 2,3 4,3c4,-1 5,-1 15,-13c0.335,0.332 0.668,0.665 1,1c-7.119,6.862 -12.295,15.489 -15,25l-2,3c-3,2 -3,3 -2,5l1,2l3,-2l2,-2l4,-1l3,0l6,-5l5,-6l-5,6c-3,4 -5,7 -5,10l-3,6c-1,3 -2,4 -1,5l0,1c-2,-2 -2,-1 -7,4c-4,5 -4,6 -2,8l2,2l3,-2c5,-4 7,-7 6,-8l2,0c2,2 2,2 11,-7l5,-5c-11,13 -13,16 -14,20l-4,7l-2,4l-1,1c-1,-1 -3,2 -6,7c-1,3 -1,3 1,6l1,2l4,-4c1,-2 3,-3 3,-2c14.279,-12.024 27.341,-25.422 39,-40c8.15,-8.925 15.828,-18.271 23,-28c-2,0 -6,-9 -7,-13l-1,-7l-2,-8l-1,-7l-8,8l-8,9l8,-10c6,-7 8,-10 9,-14l0,-20l-6,6c0.662,-1.336 1.329,-2.669 2,-4c3,-4 3,-4 2,-9l-2,-9l-1,-5l-15,16l-3,3l15,-18c2,-3 3,-8 1,-13l-1,-7l-1,-5l0,1Zm-10,90l-3,4l-3,2l2,-3l4,-3Zm21,3l-2,1l1,-2c2,-1 3,0 1,1Zm-5,5l-14,17c-1.966,1.707 -3.967,3.374 -6,5l15,-17l8,-8l-3,3Zm-23,0l-3,4l-3,3l2,-4l4,-3Zm-7,8l-4,4l-3,4l3,-4l4,-4Zm-260,-94l-5,4l3,3l2,3l5,-5c3,-4 4,-6 3,-7c-2,-3 -4,-3 -8,2Zm13,11c-4,5 -5,6 0,7c2,1 3,0 6,-3c4,-4 4,-5 1,-6l-1,-1c1,-3 -2,-1 -6,3Zm115,1l-1,3l-2,2c-1,1 -2,2 0,3c1,2 1,2 3,1l2,-1l1,-5c0,-4 -1,-5 -3,-3Zm-100,9l-4,5c-2,2 -2,2 1,3c2,2 3,1 6,-3c4,-3 4,-4 2,-5c-2,-3 -3,-2 -6,0l1,0Zm-27,4l-4,4l2,3c3,2 3,2 8,-4c3,-4 3,-4 2,-6l-3,-2l-5,5Zm89,7c-3,4 -1,6 3,2c2,-2 2,-2 1,-4c-2,-1 -2,-1 -4,2Zm50,-2c-1,2 1,2 2,0l0,-1l-3,1l1,0Zm-75,4c-2,2 -2,3 0,3c1,1 4,-2 4,-4c0,-3 -1,-3 -4,1Zm50,-2c-2,2 0,3 2,1l1,-2c-1,-1 -2,-1 -3,1Zm-75,3c-3,4 -3,6 0,6l2,-2l3,-3c2,-2 2,-2 0,-3c-2,-1 -2,-1 -5,2Zm-51,3l-4,4l3,3l3,2l4,-5l4,-5l-2,-2l-3,-2l-5,5Zm26,-1c-2,1 -3,3 -2,4c2,3 10,-3 8,-6c-1,-3 -3,-2 -6,2Zm114,6l-1,1l1,0l1,-2l-1,1Zm-51,3l0,2l2,0c3,-3 0,-5 -2,-2Zm26,-1c-2,2 0,2 1,0l0,-1l-2,1l1,0Zm-126,5c-5,5 -5,6 -3,8l2,2l6,-5c4,-4 5,-4 3,-7l-2,-3c-1,0 -4,2 -6,5Zm76,-2c-2,1 -2,2 -1,2c2,0 4,-2 4,-4c0,-2 -1,-1 -3,2Zm-49,-1l-2,4c-3,2 -3,3 -1,4c2,2 2,2 5,-2c3,-4 3,-4 2,-6c-2,-1 -4,-2 -4,0Zm24,1c-2,2 -2,3 -1,4c2,1 2,1 3,-1c1,-1 2,-3 1,-4l-3,1Zm187,1c-1,3 -1,3 2,2c2,0 3,-2 1,-4c-2,-1 -2,-1 -3,1l0,1Zm-124,9c-2,2 0,3 2,1l0,-2l-2,1Zm-26,1l0,2c2,1 3,0 3,-2l-3,0Zm-74,4c-3,3 -3,3 -1,5l2,1c6,-7 6,-7 4,-8c-2,-2 -2,-2 -5,2Zm26,-2l-2,3l-1,0l-1,1c2,2 4,1 6,-1c3,-3 3,-3 1,-4c-1,-1 -2,0 -3,1Zm25,0c-1,2 -1,2 1,1l0,-2l-1,1Zm161,3l1,0l1,-1l-1,0l-1,1Zm-99,5l0,3l2,-2c0,-2 0,-2 -2,-1Zm-25,2l0,2c2,0 4,-2 3,-3c-1,-1 -1,-1 -3,1Zm-48,1l-3,2l-3,2l2,2c2,2 2,2 4,0c2,-2 3,-6 1,-7l-1,1Zm23,1l0,1l3,-1l-1,-1l-3,1l1,0Zm163,2l-1,1l1,0l1,-2l-1,1Zm-26,3l0,1l1,-1l1,-2l-2,2Zm-28,1l-3,3c1,1 1,1 -1,1l-2,0l-2,1l-4,2l-5,5l-9,10l-12,14l-9,12l-6,10l-2,4l-1,2l-1,2c0,4 15,-2 16,-7l4,-4l9,-8c0,-2 2,-3 2,-3c2,0 9,-7 11,-11l12,-15c4,-3 9,-10 8,-12l0,-2c2,0 2,-5 1,-6l-6,2Zm-49,56l-1,1l-1,0l1,-1l1,0Zm1,-53c-3,3 -4,5 -1,5l1,1l-4,0c-3,0 -4,0 -10,7c-11,11 -15,15 -14,16l-3,4l-3,3l-2,3c-1,1 -1,1 1,2c1,1 3,0 5,-2l4,-3l4,-2l2,-1l7,-7c3.641,-3.011 6.989,-6.359 10,-10l3,-4l3,-4c2,-2 2,-2 0,-2l0,-1l1,-1l0,-2c2,-1 2,-5 0,-6l-4,3l0,1Zm-25,33c1,2 1,2 -1,2c-1,0 -2,0 -1,-1l0,-2c0,-2 1,-1 2,1Zm2,-33c-3,2 -4,6 -2,6l5,-3c2,-3 3,-4 1,-5l-4,2Zm47,-1l-4,3l-2,1l-2,1l-2,1c-1,0 -9,8 -16,17l-6,7c-6,5 -14,20 -12,24c0,1 10,-4 14,-8l4,-3c0,0 4,-3 7,-8c6.865,-8.417 14.211,-16.43 22,-24l1,-2l2,-4l0,-6c0,-2 -3,-1 -6,1Zm45,-1l2,1l1,0l-3,-1Zm-117,4l-2,3l0,1l1,2c2,0 5,-6 5,-7l0,-2l-4,3Zm113,-2c-1,1 0,1 1,1l0,2l-5,2l-3,2l-4,3l-3,3l-1,3l-3,3l0,3l-1,1l-3,1l-5,5c-5,3 -13,12 -14,16l-2,2l-3,3c-1,3 -4,7 -7,9c-4,4 -4,5 -5,9l-1,6l0,1l2,0l7,-4c2,0 11,-8 10,-9c0,-1 13,-15 15,-15l15,-15l0,-4l2,-5l3,-3l3,-3l6,-8l2,-2c3,0 1,-2 -1,-2c-2,0 -2,0 1,-1l3,-2l-1,-1l-4,0c-2,-2 -4,-2 -5,-1l1,0Zm23,6c-2,0 -2,2 0,3c1,0 3,-1 3,-3l-3,0Zm-122,4l-4,5c-2,2 -2,2 -1,4c1,4 3,4 6,0l4,-5c1,-2 2,-3 1,-4c-2,-3 -4,-3 -6,0Zm-24,1l-3,2l-3,2l-6,5c-13.213,11.524 -24.967,24.622 -35,39c0,2 -2,5 -7,9c-3.617,3.115 -6.663,6.837 -9,11l-3,4c0,2 4,6 6,6l11,-11c11.688,-12.308 23.692,-24.312 36,-36c6.322,-7.869 12.006,-16.228 17,-25l3,-5l-2,-1c-3,-2 -3,-2 -6,0l1,0Zm136,5l-1,1l-2,3c-2,1 -4,5 -2,5l3,0c1,1 2,0 3,-2l1,-2l2,-2l2,-3l-2,1l-2,-1l-2,0Zm-3,6l-1,1l-1,0l1,-1l1,0Zm27,-5c-2,4 0,6 2,3l2,-4c0,-2 -3,-1 -4,1Zm83,2l-4,4l-7,9l-9,11l-1,2c-14.917,13.971 -28.02,29.762 -39,47l1,4l2,3l-2,-2c-3,-2 -3,-2 -4,0l-2,3l-1,2l-3,3c-1,1 -1,2 1,2l1,3c0,2 1,1 6,-4c5.554,-6.195 11.95,-11.581 19,-16l3,-3l2,-4l5,-6l5,-6l1,-1l2,-3l2,-3l2,-2l4,-4c3,-2 6,-4 4,-4l1,-1l0,-6l-1,-2l1,-1c1,1 2,-1 2,-5c0,-3 1,-5 4,-5l3,-2l5,-3c3,-1 5,-5 2,-5c-1,0 -2,-1 -1,-4l0,-5l-4,4Z" style="fill-rule:nonzero;"/><path d="M161,278c-13.888,11.431 -26.315,24.53 -37,39c-5.282,4.761 -9.982,10.132 -14,16l-2,3l-3,4l-5,6l-3,5l0,3c2,2 6,2 6,1l3,-4c3,-2 4,-4 3,-5c0,-2 0,-2 2,-2c1,0 4,-1 5,-3l4,-3l6,-6l11,-12c9.798,-9.329 18.519,-19.727 26,-31l5,-6l1,-2l-4,-2c-1,-2 -2,-2 -4,-1Zm110,8l-6,3c-3,1 -5,3 -9,7c-6,7 -6,9 -1,8l-1,2c-1,1 -3,2 -4,1l-1,2c1,3 0,3 -2,5c-5,3 -13,10 -15,14c-2,5 -2,5 1,6c3,1 6,1 11,-4l4,-3c2,-1 5,-7 6,-9l0,-4l-2,-4l3,-1l3,0c1,1 2,0 4,-2l8,-5c5,-2 8,-5 8,-9l1,-5l-2,-2c-3,-2 -4,-2 -6,0Zm24,1c-5,3 -6,5 -4,5l2,1c0,2 -3,3 -7,3c-4,0 -6,1 -7,2c-3,2 -3,5 -2,5l0,1l2,1l8,0l3,-1c3,0 4,-2 2,-4l-2,0l-1,-1c-1,-1 2,-2 7,-4c3,-1 4,-1 3,-2l1,-3c3,-5 0,-7 -5,-3Zm13,11c-4,2 -5,3 -3,3c3,0 2,2 -2,3c-6,0 -5,2 0,2l6,0l1,-1c-1,0 0,-2 2,-3c2,-3 3,-4 2,-5c-1,-2 -2,-2 -6,1Zm-149,11c-4,3 -4,4 -3,5c2,1 4,1 7,-3c2,-2 2,-3 1,-4c-1,-1 -3,0 -5,2Zm138,5l-1,2c1,1 5,-3 5,-4c-1,-2 -2,-1 -4,1l0,1Zm-145,-1l-1,0l-8,9c-3.713,4.905 -7.72,9.58 -12,14l-10,13c-3,4 -3,4 -1,5l2,2l-2,0c-2,-2 -2,-2 -6,2c-6,7 -6,8 -3,10c2,2 2,2 5,0l3,-3c0,-1 4,-6 10,-11c9.324,-7.839 17.121,-17.331 23,-28c1,0 3,-6 2,-8l0,-5l-1,-1l-1,1Zm120,2c-3,2 -3,2 -2,3l5,-2c3,-2 3,-3 1,-3c-1,-1 -3,0 -4,2Zm40,5l-3,5c-2,2 -2,2 -1,4c1,1 2,1 5,-3l4,-3l-2,-3c-3,-2 -3,-2 -3,0Zm-51,3c-3,2 -5,3 -5,5l-1,3l0,2l1,0l1,-1c0,3 5,1 7,-1l3,-3l2,-1c2,-1 1,-2 -1,-4l-3,-2l-4,2Zm111,5c-1,4 -5,9 -5,7l-3,2c-3,3 -9,13 -8,14c2,1 0,3 -2,3c-2,0 -9,4 -12,7c-3.493,5.232 -6.828,10.567 -10,16l0,2l-1,0l-1,-1l-5,6l-5,5l3,3l2,3l8,-8l8,-6c1,1 3,-2 3,-5l2,-4c2,-3 2,-3 0,-2l-1,-1l0,-2l2,0c1,2 3,1 5,-2l5,-6l2,-3l1,0l5,-4c2,-3 5,-5 5,-4c1,0 3,-7 4,-16l0,-9l-2,5Zm-4,10l-1,2c-2,0 -2,-1 -1,-2c1,-2 2,-1 2,0Zm-82,-13l-3,2l4,2l2,-2c1,-2 -1,-3 -4,-2l1,0Zm-126,10l-1,3c1,1 4,-1 5,-3c2,-3 -2,-4 -4,0Zm27,-2l1,0l1,-1l-1,0l-1,1Zm63,1l2,3l0,1c-1,-1 -4,3 -4,5c0,2 3,1 6,-3c2,-3 2,-3 1,-5l-5,-1Zm48,4c-2,5 0,5 4,1l1,-3l-1,0c-1,-2 -2,-1 -4,2Zm-24,1l-1,5c1,1 1,1 2,-1l2,-3c2,0 1,-2 0,-2c-1,-1 -2,0 -3,1Zm-49,2l0,4l2,-1c2,-2 0,-5 -2,-3Zm-79,5l-4,6l-5,5l-32,34c-14.078,13.972 -27.429,28.658 -40,44l-6,6l3,5l3,7l2,2l1,-2c2,-4 10,-13 20,-22l10,-12l7,-9l8,-9c1,-3 5,-6 7,-9l7,-8l8,-10c3.632,-3.741 6.975,-7.753 10,-12c2,-3 3,-5 2,-6l0,-1c2,0 6,-3 8,-8c1,-1 -2,-6 -3,-6c-1,0 -4,2 -6,5Zm54,-1l0,1l2,-3l-2,1l0,1Zm-122,1l-1,2l-3,4c-2,2 -2,3 -1,5l1,3l0,-3c0,-2 0,-2 1,-1l0,3l2,-2l7,-7c1,-1 -2,-6 -3,-6l-3,2Zm234,2l-1,2l-1,2l2,1l3,-1c1,0 2,-4 1,-5c-2,-1 -3,-1 -4,1Zm-24,3l-1,1l1,0l1,-2l-1,1Zm-26,2c-2,1 0,4 2,2c1,-1 2,-4 0,-4l-2,2Zm-25,1l0,3c1,2 2,1 3,-1c2,-3 2,-3 0,-3l-1,-1l-2,2Zm-24,1l0,3c0,1 1,1 2,-1c2,-3 1,-5 -2,-2Zm-150,8l-4,5l2,2c2,2 3,2 5,0c4,-4 6,-8 5,-9c-2,-3 -3,-2 -8,2Zm26,-1c-3,4 -3,6 -1,6c1,1 3,0 5,-3c4,-4 5,-5 3,-5l-3,0c-1,-1 -2,0 -4,2Zm277,-1c-1,3 -16,18 -18,18l-5,4l-3,5l-3,5l-2,4l-1,1l-2,3c-7,9 -11,14 -10,15c0,2 0,2 -2,2c-2,-1 -3,0 -4,2l-6,6l-3,4l-10,11l-16,17l-3,4l-3,6l-1,2l0,-1l-4,4c-3,2 -5,5 -5,6l2,2c3,2 3,2 7,-3c5,-3 5,-4 4,-6c-1,-2 -1,-2 1,-1c1,1 3,0 8,-5c10,-10 10,-11 10,-12l1,-2l3,-3c1,-2 1,-2 -1,-5l-2,-2l5,5l1,-1l5,-6l5,-5l4,-4l2,-1l-1,-1l8,-8l9,-9c1,0 7,-5 16,-16c6,-6 8,-9 7,-10l2,-6c4,-6 6,-11 6,-15l0,-4l1,-1c0,-2 -2,-1 -2,1Zm-54,70l-1,0l-2,-2l2,0l1,2Zm-11,-69c-2,1 -2,2 -1,3l3,-1c3,-3 1,-5 -2,-2Zm-51,4c-1,2 -2,2 -1,3c1,1 2,1 4,-1c1,-2 2,-3 1,-4c-1,-1 -2,0 -4,2Zm26,-2l-1,3l2,-1c1,-3 1,-3 -1,-2Zm-50,2l-3,2l-3,2l2,3l4,2l4,-7c-1,-2 -4,-4 -4,-2Zm-122,3l-5,7c-3,3 -3,4 -2,5l3,1l0,1l-4,0c-3,-1 -3,-1 -10,6l-15,14c-14,14 -18,18 -18,23l2,5l0,4l2,2l4,-3l7,-8c13.786,-15.081 26.484,-31.121 38,-48c5,-4 5,-6 2,-9l-1,-2c0,0 -2,0 -3,2Zm46,3l-3,3l2,2c2,1 2,1 4,-2c2,-3 3,-4 2,-5c-1,-2 -2,-1 -6,2l1,0Zm51,-3l0,2l3,-2l-3,0Zm111,4c-3,4 -4,6 -1,8c1,1 2,0 6,-4l4,-5l-3,-2c-2,-1 -3,0 -6,3Zm-258,1l-3,1l-3,3l-4,2l0,11c1,3 3,9 3,6l3,-4l3,-4l1,-3l4,-6c3,-4 3,-5 1,-7c-2,-3 -2,-3 -5,0l0,1Zm23,1l-3,5l-1,0l2,2c2,3 3,3 3,1l4,-5c3,-3 3,-3 1,-5l-1,-1l-1,-1l-4,4Zm161,0l-5,4l-2,4l4,3c3,2 4,3 6,2l6,-6l0,-3c1,-5 -4,-7 -9,-4Zm50,0c-2,3 -3,5 -1,3l1,1c0,1 1,1 2,-1l2,-3c0,-2 -2,-2 -4,0Zm-26,2l-7,4l-5,4l-2,1l-4,7l-4,8l-2,3l0,4c2,2 4,2 5,0l2,-2l1,-1l3,-2c5,-2 11,-8 13,-11l2,-5l1,-3l2,-5c1,-2 2,-3 1,-4c-2,-1 -2,-1 -6,2Zm-123,6c-3,5 -3,5 -1,8l1,2l4,-4c4,-5 5,-7 3,-10c-2,-3 -4,-2 -7,4Zm76,-3l0,2c1,1 4,-2 4,-3c-1,-2 -3,-1 -4,1Zm-24,2l-1,1l1,0l1,-2l-1,1Zm-127,5l-11,10l-5,5l4,14c0,2 11,-10 14,-16l2,-3c2,-1 6,-8 5,-8l1,-1c2,0 1,-1 -2,-4l-3,-2l-5,5Zm236,-1c-4,4 -4,4 -2,7c2,3 4,2 8,-3l4,-5l-2,-1l-3,-2l-5,4Zm-22,0l-4,3l-6,3l-5,3l-9,14l-2,2l-1,2l-1,2c-2,0 -4,3 -3,5l-1,1l-1,0c0,2 -7,9 -13,13c-7,5 -9,7 -7,7c1,0 2,1 2,3c0,4 3,8 3,5l2,-4c2,-2 2,-2 3,-1c0,2 1,1 3,-2c2,-3 2,-3 3,-1c1,1 2,0 7,-5l5,-8c1,-4 9,-12 17,-18c4,-4 6,-6 9,-14l5,-9l-3,-2c-1,-1 -2,-1 -3,1Zm-26,38l-1,1l-1,-1l0,-1l2,1Zm-23,-36l-3,4l0,3l5,-2l5,-3c2,0 1,-2 -1,-3c-4,-3 -5,-2 -6,1Zm-101,6l-10,9c-3.779,4.215 -7.785,8.221 -12,12l-7,8l-10,11c-4.581,6.629 -9.954,12.673 -16,18l-5,6l8,12l4,-5l5,-5l2,-3c1,-3 13,-16 18,-19l4,-6l5,-4l3,-4c2,-5 13,-17 16,-18l2,-3l0,-2l1,-3l1,-2c1,-1 0,-2 -2,-2l-4,-2l-3,2Zm183,5c-10.247,9.774 -19.93,20.125 -29,31l-5,5l-4,4l-2,2l-2,3l-3,6l-3,6l0,4l-2,0l0,-1c-1,-1 -3,0 -4,3l-3,4l2,4c2,0 9,-8 8,-10c0,-1 2,-2 3,0l12,-12l2,-3l10,-11c5,-5 10,-10 10,-12l2,-2c1,1 2,0 3,-3l2,-3c1,0 2,-1 2,-3c2,-2 2,-2 0,-4l-1,-3l1,1l2,1l1,1c0,1 1,1 7,-6l3,-4l-2,-3l-3,-2l-7,7Zm-23,33l2,3l-5,-4c0,-2 2,-1 3,1Zm69,-39l-1,3l-1,2l-5,5c-26.085,34.896 -54.13,68.283 -84,100l0,3l-1,2c-2,0 -2,-1 -2,-2l0,-2l-1,2c0,2 -1,4 -4,6c-4,2 -6,6 -4,8l-1,0c-2,0 -9,6 -9,8l-2,0l-2,1c0,2 -16,19 -18,19l-1,1l-1,2l-9,8l-19,22l-4,4l3,3c3,3 9,6 11,6l0,-1l6,-7c26.666,-29.131 52.347,-59.147 77,-90l8,-9c7.144,-6.884 13.826,-14.234 20,-22l20,-22l12,-15l5,-4l4,-4c2,0 4,-6 5,-17c1,-9 1,-12 -2,-10Zm-154,2l1,1l1,-2l-1,-1l-1,2Zm88,0l-15,11l-7,10l-11,11c-4,4 -15,15 -16,18l0,4c1,1 1,2 -1,4c-4,3 -4,5 0,4c3,0 10,-5 8,-6l0,-3c1,-3 3,-4 5,-2l4,-2l4,-4c1,1 2,0 3,-2l6,-5c9.304,-8.883 17.376,-18.973 24,-30c4,-5 4,-6 1,-8c-3,-2 -3,-2 -5,0Zm-138,1l-4,4l-1,1c2,-1 4,1 3,2l1,1c1,0 5,-8 4,-9c0,-2 -1,-1 -3,1Zm46,6l-5,2c-1,-1 -3,1 -6,4l-8,6c-7,4 -12,9 -22,22l-9,10l-5,5c-2,4 -3,6 -5,6l-2,2l-4,4l-2,4l-1,2l-15,17c-3,5 -14,15 -15,14l-1,1l5,7l5,4l1,-2l3,-4l5,-7c17.89,-18.532 34.908,-37.887 51,-58c4,-2 14,-12 14,-13l3,-4l3,-4l3,-4l4,-5l6,-5l5,-5c0,-1 -4,-1 -8,1Zm-55,1l-4,1l-4,3l-7,10l-15,15l-7,8l-19,22c-9,9 -10,10 -8,11l4,7l2,5l5,-6l6,-8c5,-6 19,-22 21,-22c2,0 7,-6 7,-8l12,-14c7,-7 11,-12 11,-14l2,-4c2,-2 2,-3 0,-3l-3,-2c-2,-2 -3,-3 -3,-1Zm72,1l-1,4c1,1 1,1 3,-1c3,-3 3,-3 1,-4c-1,-1 -2,0 -3,1Zm-50,2l-4,2l-1,1l-3,2c-4,3 -20,19 -20,21c0,2 -5,8 -8,9c-4,2 -10,9 -10,11l-10,13l-21,21l5,9l3,4l6,-8c7,-10 29,-33 32,-33l3,-4l4,-6l3,-3c0,-2 5,-7 11,-12c11,-11 15,-16 16,-22c0,-4 0,-5 -2,-6c-1,-1 -2,0 -4,1Zm64,7l-7,9l2,1l4,0c0,-2 4,-6 6,-6c2,0 1,-1 -1,-3c-2,-3 -3,-3 -4,-1Zm-25,1l-1,1l-4,3l-4,2l-2,4c0,3 0,3 -1,1c-1,-2 -1,-2 -3,1l-5,6c-2,1 -4,4 -4,6c-2,4 -5,7 -12,12l-4,4l-2,4l-4,4l-4,4c-2,0 -3,2 -3,3l-3,4l-3,4l-5,6l-9,11c-5,6 -19,20 -21,20l0,3l9,9l4,-6l4,-7l1,-1l2,-3l2,-2l-3,-2l-3,-3l4,2l3,2l3,-2l14,-15l6,-7l2,-2l1,-3l3,-2l4,-3l1,-1c0,-3 3,-8 7,-10l5,-3l3,-3c3,-3 5,-8 6,-13c0,-3 1,-4 2,-4l2,0l4,-4l6,-5l4,-5l2,-3l1,-1l1,-4c1,-3 1,-3 -2,-3l-4,1Zm13,11c-3,3 -4,8 -1,8c2,0 7,-4 7,-5l-1,0c-1,1 -1,1 -1,-1c1,-3 -1,-4 -4,-2Zm135,1l-3,5l-5,6l-4,4l-3,3l-11,13l-18,19l-12,14c-13.565,14.156 -26.575,28.834 -39,44l-9,10l-24,27c-5.912,7.075 -11.913,14.075 -18,21l11,-1l8,1l6,-7c15.94,-18.098 31.608,-36.434 47,-55l10,-11l9,-11l6,-7l8,-9c6.746,-6.615 13.091,-13.628 19,-21l7,-8l5,-5c1,1 2,0 3,-7l2,-7c3,-4 8,-21 7,-21l-2,3Zm-141,13l-10,3c-5,4 -14,11 -12,11c2,0 2,1 0,3l-1,3c0,2 6,1 8,-1c1,-1 2,-2 3,-1c1,1 2,-1 2,-5l2,-1l2,-2l5,-3c2,0 4,-2 5,-4l1,-3l-5,0Zm7,14l-1,0l-2,2c-1,1 -2,3 -1,4c0,2 -3,5 -4,4l-3,2l-5,2c-4,1 -4,1 -4,3c0,1 0,2 3,1l4,1c1,1 3,-1 7,-5c6,-6 10,-12 8,-14l-2,0Zm12,11c-3,4 -3,6 -1,7l4,0l2,-4l2,-1l0,-3c-2,-3 -3,-3 -7,1Zm-48,0l-2,0l-2,2l-4,4c-2,1 -3,2 -3,4l0,2l-3,3l-2,4c-10.701,7.628 -19.581,17.533 -26,29c-2,2 -2,2 0,1l3,1c2,3 3,3 9,-3c14,-12 18,-17 22,-24c2,-6 4,-8 6,-8l2,-1l5,-4c4,-2 4,-2 3,-4l-2,-2c1,-1 -2,-5 -4,-5l-2,1Zm159,2c0,2 -4,6 -6,6l-1,1l-1,2c-9.368,10.007 -18.374,20.347 -27,31l-13,14c-20.941,25.27 -42.961,49.626 -66,73c-2,1 3,6 7,6l6,1c1,0 2,0 3,-2l5,-7l8,-8l18,-22l19,-21l10,-12l12,-14c6.662,-7.648 13.67,-14.989 21,-22c1,1 1,1 2,-1l1,-7c0.455,-6.022 1.122,-12.025 2,-18Zm-97,10c-3,3 -4,4 -1,6c1,1 2,0 4,-3c3,-2 3,-3 2,-4c-2,-2 -2,-2 -5,1Zm-49,1l-2,4l-2,2c-10.532,7.325 -19.675,16.468 -27,27l0,2l-2,3c0,2 -1,2 -2,2l-1,1l-2,3c-1,1 -1,2 1,3c2,2 2,1 6,-3l2,-4l-2,-1l4,-1c3,0 5,-1 6,-3l3,-1c0,1 13,-13 15,-17l2,-3l1,-1l1,-2l1,-1c-1,-1 2,-6 3,-6l2,-2l-1,-1c-1,1 -2,-2 -1,-3c1,-2 -3,-1 -5,2Zm24,1c-3,3 -4,4 -3,6c0,1 1,2 2,1l1,1l2,-2l5,-6c2,-2 2,-2 0,-3c-3,-1 -2,-2 -7,3Zm39,8c-3,3 -5,7 -4,7c1,2 6,2 7,1l-1,-1l1,-3c3,-2 3,-3 2,-5c-1,-3 -2,-2 -5,1Zm-51,2l-4,4c-7,4 -14,13 -18,21c-3,7 -3,7 -2,9l4,0l2,-1l0,-1l1,-2l1,-1l2,-1l2,0l-2,-2c-2,-1 -2,-2 -1,-2l3,1c1,2 21,-18 21,-21c1,-3 -1,-5 -3,-4l-1,-1c0,-2 -3,-1 -5,1Zm22,4l-6,6l-3,5c-2,2 -4,4 -3,5c1,2 5,1 7,-2c2,-2 2,-3 1,-6c-1,-2 -1,-3 1,-4l4,-1c2,1 3,0 6,-3l4,-4l-3,-1l-2,-1l-6,5l0,1Z" style="fill-rule:nonzero;"/><path d="M334,500c-18.453,18.006 -35.502,37.396 -51,58c-10.277,12.643 -21.296,24.665 -33,36c-3,3 -4,5 -2,5l4,-2l19,-8c5,-2 8,-4 10,-7l9,-11l14,-16c6.396,-7.574 13.068,-14.913 20,-22c1,1 5,-7 7,-17l5,-14c3,-8 2,-9 -2,-2Zm-87,2c-3,2 -3,4 0,4c2,0 5,-5 3,-6c0,-1 -2,0 -3,2Zm-37,14c-1,2 -2,3 0,4c1,2 5,-3 3,-6c0,-2 -1,-1 -3,2Zm25,0c-2,1 -2,2 -1,2c1,1 5,-2 5,-3c0,-2 -3,-1 -4,1Zm-98,1l-2,2l-2,2l-1,1l-6,3l-4,3l3,3c2.481,2.534 4.818,5.205 7,8l1,-2l2,-4l3,-6c5,-7 5,-8 4,-10l-5,0Zm87,11c-2,1 -2,3 -1,6l3,-3l3,-4c-2,-1 -4,-1 -5,1Zm-49,0l-2,3l-3,4l-2,2l3,0c4,0 9,-5 8,-8c-1,-2 -2,-2 -4,-1Zm23,2c-2,2 -2,2 0,4c1,1 2,1 2,-1l3,-3c2,-2 2,-2 0,-2c-2,-1 -4,0 -5,2Zm-48,0l-5,4l-11,7l4,5l5,3l3,3l1,-5c1,-2 2,-5 4,-6c2,-2 2,-2 1,-3l0,-2l4,-3l0,-4c-3,-2 -4,-1 -6,1Zm14,9l-4,4l-3,2l-9,6l-1,1l14,8c1,0 10,-17 9,-19l-2,-1l-2,-2c-1,-1 -1,-1 -2,1Zm48,0l-3,3l-3,2l-4,3c-5.157,3.773 -9.856,8.136 -14,13l-6,7l-6,5c-2,1 -2,1 0,4l3,3l8,4l2,-3l11,-12l10,-12c-1,-1 0,-1 0,0l2,-1l1,-2l0,-2l2,-2l0,-2l2,-4c2,-3 3,-5 0,-4l-2,-1c-1,-1 -2,0 -3,1Zm-27,4l-6,5l-5,4l-5,3l-3,3l-3,2l3,2l5,6l2,5l2,-3l5,-6l8,-10l4,-8l2,-3c0,-2 -3,-5 -4,-5l-5,5Zm131,5l-3,4c-7.732,8.945 -15.398,17.945 -23,27c7.94,-5.258 14.742,-12.06 20,-20l9,-15l-3,4Z" style="fill-rule:nonzero;"/></svg>